<svg width="512" height="512" viewBox="0 0 512 512" fill="none" xmlns="http://www.w3.org/2000/svg">
  <g stroke="#171717" stroke-linecap="round" stroke-linejoin="round">
    <!-- bowed Windsor crest -->
    <path d="M142 93 Q256 52 370 93" stroke-width="18"/>
    <!-- back spindles -->
    <path d="M159 96 L181 270" stroke-width="12"/>
    <path d="M190 84 L207 268" stroke-width="10"/>
    <path d="M223 76 L232 267" stroke-width="10"/>
    <path d="M256 73 L256 267" stroke-width="10"/>
    <path d="M289 76 L280 267" stroke-width="10"/>
    <path d="M322 84 L305 268" stroke-width="10"/>
    <path d="M353 96 L331 270" stroke-width="12"/>
    <!-- seat -->
    <path d="M139 269 Q256 250 373 269 L355 305 Q256 322 157 305 Z" fill="#171717" stroke-width="8"/>
    <!-- legs -->
    <path d="M178 303 L151 445" stroke-width="18"/>
    <path d="M334 303 L361 445" stroke-width="18"/>
    <path d="M208 310 L197 438" stroke-width="13" opacity=".92"/>
    <path d="M304 310 L315 438" stroke-width="13" opacity=".92"/>
    <!-- stretchers -->
    <path d="M163 390 Q256 374 349 390" stroke-width="10"/>
  </g>
</svg>
